<svg width="115" height="74" viewBox="0 0 115 74" fill="none" xmlns="http://www.w3.org/2000/svg">
<path fill-rule="evenodd" clip-rule="evenodd" d="M81.4241 57.2473C77.9587 56.0397 74.211 55.9626 70.7456 54.755C69.6931 54.3952 67.6139 53.9584 67.1775 52.7508C66.7668 51.5689 66.7668 50.1814 66.6898 48.948C66.6384 47.9716 66.6127 46.9952 66.6127 46.0189C66.6127 45.3765 68.2556 44.0147 68.615 43.4237C70.0011 41.1112 70.1295 38.0022 70.3862 35.3814C72.6194 35.998 72.9018 31.8612 73.2868 30.6022C73.5692 29.7286 75.2891 23.7161 72.6194 24.5383C73.2612 23.4077 73.5179 22.0202 73.6976 20.7612C74.211 17.4723 74.4163 13.8751 73.4152 10.6633C71.336 3.98275 64.9442 0.231359 58.1931 0.0258035C51.3393 -0.205447 44.4598 3.08344 41.8929 9.7383C40.6607 12.9758 40.7634 16.4959 41.1741 19.8876C41.3538 21.4293 41.6105 23.1508 42.3806 24.5383C39.8906 23.7932 41.2255 29.0862 41.5078 30.0112C41.9185 31.3216 42.2779 36.0237 44.6139 35.3814C44.8192 37.4626 45.0502 39.5952 45.615 41.6251C46 42.9869 46.7958 44.1432 47.7199 45.1966C48.1819 45.7105 48.413 45.7619 48.3873 46.43C48.3616 48.4341 48.413 50.5925 47.8996 52.5452C47.3862 54.498 43.0993 55.3202 41.3795 55.68C36.7589 56.6307 32.4978 57.0675 28.6473 59.9452C24.1552 63.2598 21.8192 68.4244 21.8192 74.0001C43.202 74.0001 64.5848 74.0001 85.9677 74.0001C88.3806 74.0001 90.7679 74.0001 93.1808 74.0001C93.1808 66.4202 88.6116 59.7397 81.4241 57.2473C84.3248 58.2494 78.5491 56.2452 81.4241 57.2473ZM29.5458 64.6473C30.9833 63.1314 32.8058 61.7952 34.7824 61.0501C37.4777 60.0223 40.5324 60.0737 43.3304 59.3543C45.6406 58.7633 48.5156 57.8383 50.3125 56.1682C51.9554 54.6265 52.1351 52.2626 52.2891 50.13C52.4174 48.3314 52.3918 46.5584 52.3918 44.7598C52.3918 43.5008 50.9286 42.7814 50.2098 41.7793C49.0547 40.2119 49.0034 37.8737 48.7723 35.998C48.6697 35.1758 48.644 34.1223 47.9509 33.5571C47.1808 32.9404 46.6161 32.6064 46.231 31.63C45.7177 30.2939 45.538 28.855 45.1273 27.4675C44.8706 26.5682 45.769 25.7202 46.1284 24.9751C46.7958 23.6133 45.6406 21.5064 45.4096 20.0932C44.6909 15.8793 44.7165 11.28 47.7456 7.93969C53.8293 1.20775 67.7679 3.34039 69.7701 12.7959C70.3862 15.7508 70.0011 19.1939 69.1797 22.0716C68.8203 23.305 68.4096 24.2043 69.1284 25.4119C70.2065 27.1591 69.7444 28.2897 69.231 30.2425C68.8203 31.8612 68.3069 32.5807 67.0748 33.5827C66.048 34.405 66.202 36.4605 66.0223 37.6425C65.817 39.0814 65.6886 40.5973 64.8159 41.805C64.4822 42.2675 62.6596 43.7064 62.6596 44.1946C62.6596 47.0209 62.5313 49.8987 63.019 52.6994C63.6864 56.6821 67.0235 57.6327 70.3605 58.9946C73.7489 60.305 77.6764 59.8168 80.9621 61.4355C84.3505 63.1057 87.6105 66.1633 88.586 69.9404C68.2299 69.9404 47.8739 69.9404 27.5179 69.9404C27.1585 69.9404 26.7991 69.9404 26.4397 69.9404C26.9275 67.8077 28.1083 66.189 29.5458 64.6473C28.0313 66.2661 31.9074 62.155 29.5458 64.6473Z" fill="#03ACF2"/>
<path fill-rule="evenodd" clip-rule="evenodd" d="M28.7757 53.9585C30.5725 53.0592 32.5234 52.8536 34.5 52.6481C35.2188 52.571 35.5525 52.0828 35.0134 51.3891C33.9866 50.0786 30.4442 49.8217 28.9554 49.2307C28.0312 48.871 27.7746 48.537 27.6975 47.5092C27.6719 47.0467 27.4152 44.9911 27.7746 44.6571C28.0312 44.4002 29.6484 44.5029 30.0078 44.4516C31.471 44.2717 32.9598 43.9634 34.346 43.4238C34.9364 43.1925 35.5011 42.9099 36.0145 42.5502C36.6306 42.0877 35.5525 40.9571 35.2701 40.3404C34.3973 38.4134 34.0123 36.3064 33.8839 34.1995C33.6272 30.0627 34.269 25.9002 33.4989 21.7891C32.3438 15.4939 27.4922 12.3335 21.3058 12.3335C17.481 12.3335 13.7076 13.6439 11.577 16.9842C9.2154 20.6585 9.34375 25.2321 9.4721 29.4203C9.54911 31.8099 9.65178 34.2252 9.31808 36.6147C9.16406 37.6425 8.93304 38.6446 8.57366 39.621C8.2913 40.3661 6.85379 42.2161 7.41853 42.6016C9.54911 44.1175 13.1429 44.6314 15.7098 44.4259C15.7868 45.6849 16.0179 47.3036 15.5558 48.4856C14.8371 50.3356 9.4721 50.8238 7.85491 51.3634C3.33705 52.8793 0 56.6564 0 61.6668C4.69754 61.6668 9.36942 61.6668 14.067 61.6668C16.1719 61.6668 18.2768 61.6668 20.4074 61.6668C20.7411 61.6668 22.0246 59.2772 22.3839 58.8918C24.1808 56.8877 26.3884 55.1661 28.7757 53.9585C25.0279 55.8599 31.0859 52.8022 28.7757 53.9585ZM18.1741 57.5557C13.99 57.5557 9.8058 57.5557 5.62165 57.5557C7.4442 54.5238 12.0134 54.7293 15.0167 53.6502C17.7891 52.6481 19.5603 50.9522 19.8426 47.9974C19.8683 47.6634 19.894 40.4946 19.6116 40.4946C17.3783 40.4175 15.0424 40.4689 12.8092 40.1349C14.5804 34.405 12.8862 28.4953 13.8359 22.7141C14.529 18.5259 17.1987 16.2134 21.4598 16.2134C25.5413 16.2134 28.5703 18.1147 29.4431 22.2259C30.6752 28.187 28.9297 34.2766 30.8292 40.1863C29.4174 40.546 27.9286 40.5974 26.4654 40.6488C25.7467 40.6745 25.0022 40.7002 24.2835 40.7259C23.8214 40.7516 23.9754 41.5481 23.9498 41.9335C23.6931 44.7342 22.6663 49.1536 24.8996 51.4147C22.4353 52.9564 19.7656 55.0891 18.1741 57.5557Z" fill="#03ACF2"/>
<path fill-rule="evenodd" clip-rule="evenodd" d="M94.4129 61.6667C101.267 61.6667 108.146 61.6667 115 61.6667C115 56.6563 111.637 52.8535 107.119 51.3632C105.04 50.6952 101.036 50.4896 99.5469 48.691C98.8024 47.7917 99.2131 45.5049 99.2902 44.4257C100.42 44.5285 101.652 44.3486 102.807 44.1945C103.859 44.0403 104.886 43.8347 105.887 43.475C106.349 43.2952 106.811 43.1153 107.248 42.8584C108.249 42.2674 107.787 42.1646 107.273 41.291C104.475 36.5889 105.733 30.6278 105.605 25.4632C105.502 21.1722 104.373 16.4702 100.471 14.0549C96.9542 11.8709 91.7433 11.7938 87.9698 13.3354C77.0859 17.7035 83.5033 32.1438 79.7812 40.4174C79.1395 41.8049 78.2154 42.2931 79.8326 43.1153C80.731 43.5778 81.7065 43.8861 82.6819 44.1174C84.1707 44.4771 85.7109 44.6827 87.2511 44.734C87.5078 44.734 87.3281 47.9715 87.2511 48.3056C86.9687 49.5646 84.2221 49.9243 83.1953 50.207C82.1428 50.4896 80.3973 50.5667 79.8839 51.6715C79.1138 53.316 82.4252 52.9049 83.2466 53.059C85.8906 53.5472 88.2265 55.0118 90.2801 56.682C91.7946 57.9153 93.8482 59.6625 94.4129 61.6667ZM94.3102 54.7035C93.0011 53.4959 91.6406 52.3139 90.1261 51.3632C92.385 49.1021 91.3326 44.7084 91.0759 41.882C90.9219 40.2632 90.5625 40.6743 88.9453 40.6229C87.4051 40.5715 85.6596 40.6486 84.1964 40.1604C86.0446 34.4306 84.5301 28.5465 85.4799 22.7139C86.1986 18.3202 89.202 16.1618 93.5658 16.1618C97.519 16.1618 100.24 18.1403 101.061 22.0715C102.319 28.007 100.394 34.1479 102.216 40.0577C100.035 40.3917 97.7757 40.3146 95.5681 40.3917C95.029 40.4174 95.0803 46.841 95.1317 47.4063C95.3114 50.4125 96.6975 52.2368 99.5469 53.3931C102.653 54.6521 107.504 54.3181 109.404 57.4785C107.017 57.4785 104.655 57.4785 102.268 57.4785C100.83 57.4785 99.3928 57.4785 97.9297 57.4785C96.1071 57.5042 95.6451 55.9111 94.3102 54.7035C95.337 55.6285 93.0268 53.5215 94.3102 54.7035Z" fill="#03ACF2"/>
</svg>
