<svg width="22" height="19" viewBox="0 0 22 19" fill="none" xmlns="http://www.w3.org/2000/svg">
<path d="M6.49301 16.75C6.06801 16.75 5.67301 16.514 5.51801 16.118C5.17475 15.2443 4.99902 14.3137 5.00001 13.375C5.00001 11.625 5.59901 10.017 6.60201 8.741C6.75301 8.549 6.97501 8.432 7.20201 8.344C7.67501 8.161 8.09201 7.83 8.41401 7.42C9.19029 6.42964 10.1647 5.61221 11.275 5.02C11.998 4.636 12.625 4.064 12.928 3.305C13.1408 2.77325 13.2501 2.20575 13.25 1.633V1C13.25 0.801088 13.329 0.610322 13.4697 0.46967C13.6103 0.329018 13.8011 0.25 14 0.25C14.5967 0.25 15.169 0.487053 15.591 0.90901C16.013 1.33097 16.25 1.90326 16.25 2.5C16.25 3.652 15.99 4.743 15.527 5.718C15.261 6.276 15.634 7 16.252 7H19.378C20.404 7 21.323 7.694 21.432 8.715C21.477 9.137 21.5 9.565 21.5 10C21.5041 12.7363 20.5691 15.3912 18.851 17.521C18.463 18.003 17.864 18.25 17.246 18.25H13.23C12.747 18.25 12.266 18.172 11.807 18.02L8.69301 16.98C8.23411 16.8274 7.75362 16.7497 7.27001 16.75H6.49301ZM1.33101 8.977C0.77993 10.3777 0.498002 11.8698 0.500011 13.375C0.498748 14.5633 0.673993 15.7452 1.02001 16.882C1.28001 17.732 2.10401 18.25 2.99301 18.25H3.90001C4.34501 18.25 4.62001 17.752 4.42301 17.352C3.81315 16.1151 3.49695 14.7541 3.49901 13.375C3.49901 11.667 3.97501 10.07 4.80101 8.709C5.04601 8.306 4.77301 7.75 4.30101 7.75H3.25001C2.41801 7.75 1.63701 8.203 1.33101 8.977Z" fill="#696871"/>
</svg>
