<svg width="19" height="18" viewBox="0 0 19 18" fill="none" xmlns="http://www.w3.org/2000/svg">
<path fill-rule="evenodd" clip-rule="evenodd" d="M17.0605 0H2.0379C1.21737 0 0.5 0.590779 0.5 1.40193V16.4574C0.5 17.2732 1.21737 18 2.0379 18H17.0558C17.8811 18 18.5 17.2686 18.5 16.4574V1.40193C18.5047 0.590779 17.8811 0 17.0605 0V0Z" fill="#03ACF2"/>
<path fill-rule="evenodd" clip-rule="evenodd" d="M6.07953 15.004H3.50073V6.98633H6.07953V15.004V15.004Z" fill="#EBEBEB"/>
<path fill-rule="evenodd" clip-rule="evenodd" d="M4.87921 5.76732H4.86046C4.03525 5.76732 3.50073 5.1531 3.50073 4.38415C3.50073 3.60113 4.04931 3.00098 4.89328 3.00098C5.73725 3.00098 6.25301 3.59644 6.27176 4.38415C6.27176 5.1531 5.73725 5.76732 4.87921 5.76732V5.76732Z" fill="#EBEBEB"/>
<path fill-rule="evenodd" clip-rule="evenodd" d="M15.5039 15.0041H12.9251V10.6201C12.9251 9.56986 12.55 8.85249 11.6169 8.85249C10.9042 8.85249 10.4823 9.33543 10.2947 9.8043C10.2244 9.97309 10.2056 10.2028 10.2056 10.4373V15.0041H7.62683V6.98638H10.2056V8.10229C10.5807 7.56778 11.1668 6.79883 12.5312 6.79883C14.2239 6.79883 15.5039 7.91474 15.5039 10.3201V15.0041Z" fill="#EBEBEB"/>
</svg>
