<svg width="154" height="30" viewBox="0 0 154 30" fill="none" xmlns="http://www.w3.org/2000/svg">
<path fill-rule="evenodd" clip-rule="evenodd" d="M15 21.2585L6.8252 26.2516L9.0478 16.934L1.77289 10.7022L11.3213 9.93673L15 1.09216L18.6787 9.93673L28.2271 10.7022L20.9522 16.934L23.1748 26.2516L15 21.2585Z" fill="#FFC107"/>
<path fill-rule="evenodd" clip-rule="evenodd" d="M46 21.2585L37.8252 26.2516L40.0478 16.934L32.7729 10.7022L42.3213 9.93673L46 1.09216L49.6787 9.93673L59.2271 10.7022L51.9522 16.934L54.1748 26.2516L46 21.2585Z" fill="#FFC107"/>
<path fill-rule="evenodd" clip-rule="evenodd" d="M77 21.2585L68.8252 26.2516L71.0478 16.934L63.7729 10.7022L73.3213 9.93673L77 1.09216L80.6787 9.93673L90.2271 10.7022L82.9522 16.934L85.1748 26.2516L77 21.2585Z" fill="#FFC107"/>
<path fill-rule="evenodd" clip-rule="evenodd" d="M108 21.2585L99.8252 26.2516L102.048 16.934L94.7729 10.7022L104.321 9.93673L108 1.09216L111.679 9.93673L121.227 10.7022L113.952 16.934L116.175 26.2516L108 21.2585Z" fill="#FFC107"/>
<path fill-rule="evenodd" clip-rule="evenodd" d="M139 21.2585L130.825 26.2516L133.048 16.934L125.773 10.7022L135.321 9.93673L139 1.09216L142.679 9.93673L152.227 10.7022L144.952 16.934L147.175 26.2516L139 21.2585Z" fill="#FFC107"/>
</svg>
