<svg width="17" height="21" viewBox="0 0 17 21" fill="none" xmlns="http://www.w3.org/2000/svg">
<path fill-rule="evenodd" clip-rule="evenodd" d="M12.1763 13.0213L16.7491 18.4492C16.9098 18.6401 17.0001 18.899 17 19.1689C16.9999 19.4388 16.9095 19.6976 16.7487 19.8884C16.5878 20.0792 16.3697 20.1863 16.1424 20.1862C15.915 20.1861 15.6969 20.0788 15.5362 19.8879L10.9634 14.46C9.59644 15.7167 7.87745 16.3082 6.15615 16.1139C4.43486 15.9197 2.84055 14.9544 1.69756 13.4143C0.554579 11.8743 -0.0512229 9.87528 0.00339672 7.8239C0.0580164 5.77251 0.768955 3.82287 1.99158 2.3716C3.21421 0.920326 4.85669 0.0764343 6.58489 0.0116003C8.31309 -0.0532338 9.99718 0.665859 11.2946 2.02259C12.592 3.37933 13.4052 5.27179 13.5688 7.31498C13.7325 9.35818 13.2351 11.3986 12.1763 13.0213ZM6.80032 14.1321C8.15286 14.1321 9.45 13.4943 10.4064 12.359C11.3628 11.2238 11.9001 9.68408 11.9001 8.0786C11.9001 6.47312 11.3628 4.9334 10.4064 3.79815C9.45 2.66291 8.15286 2.02513 6.80032 2.02513C5.44777 2.02513 4.15063 2.66291 3.19424 3.79815C2.23785 4.9334 1.70055 6.47312 1.70055 8.0786C1.70055 9.68408 2.23785 11.2238 3.19424 12.359C4.15063 13.4943 5.44777 14.1321 6.80032 14.1321Z" fill="#4CAF50"/>
</svg>
