<svg width="29" height="36" viewBox="0 0 29 36" fill="none" xmlns="http://www.w3.org/2000/svg">
<path fill-rule="evenodd" clip-rule="evenodd" d="M25.5119 19.5133C25.5858 18.9819 25.5858 18.3611 25.5858 17.7405C25.5858 17.1199 25.5119 16.5884 25.5119 15.9677L28.6257 13.0428C28.9227 12.7771 28.9965 12.334 28.7742 11.8907L25.8081 5.77434C25.6596 5.41944 25.215 5.24293 24.9181 5.41944L21.2104 7.19229C20.4689 6.48336 19.5796 5.86263 18.6897 5.41944L18.1705 0.721875C18.0966 0.367833 17.7997 0.0129395 17.4289 0.0129395H11.4967C11.126 0.0129395 10.8291 0.367833 10.7552 0.721875L10.1621 5.41944C9.27209 5.86263 8.45668 6.48327 7.64058 7.19229L3.93295 5.41944C3.56216 5.24293 3.19137 5.41944 3.04296 5.77434L0.0768454 11.8908C-0.0708713 12.2448 0.00288249 12.7771 0.225259 13.0429L3.41389 15.9677C3.41389 16.5884 3.34 17.1199 3.34 17.7405C3.34 18.3611 3.41389 18.8926 3.41389 19.5133L0.300059 22.4381C0.00309163 22.7039 -0.0706621 23.147 0.151575 23.5903L3.11769 29.7066C3.26617 30.0615 3.71079 30.2381 4.00768 30.0615L7.71538 28.2887C8.45689 28.9976 9.34619 29.6184 10.2361 30.0615L10.8292 34.7591C10.9037 35.2023 11.1999 35.468 11.5707 35.468H17.503C17.8737 35.468 18.1706 35.1132 18.2445 34.7591L18.8383 30.0615C19.7276 29.6184 20.5437 28.9977 21.3591 28.2887L25.0668 30.0615C25.4375 30.2381 25.8083 30.0615 25.9568 29.7066L28.9229 23.5902C29.0713 23.2362 28.9968 22.7039 28.7744 22.4381L25.5119 19.5133ZM14.4629 23.9452C11.5706 23.9452 9.27222 21.1978 9.27222 17.7405C9.27222 14.2832 11.5706 11.5358 14.4629 11.5358C17.3551 11.5358 19.6536 14.2832 19.6536 17.7405C19.6536 21.1978 17.3551 23.9452 14.4629 23.9452Z" fill="black" fill-opacity="0.54"/>
</svg>
